<svg xmlns="http://www.w3.org/2000/svg" style="display:none">
  <symbol id="plus" viewBox="0 0 24 24"><path d="M12 5v14M5 12h14" fill="none" stroke="currentColor" stroke-width="2" stroke-linecap="round"/></symbol>
  <symbol id="download" viewBox="0 0 24 24"><path d="M12 4v11m0 0 4-4m-4 4-4-4M5 19h14" fill="none" stroke="currentColor" stroke-width="2" stroke-linecap="round" stroke-linejoin="round"/></symbol>
  <symbol id="send" viewBox="0 0 24 24"><path d="M3.5 11.5 20 4l-7.5 16.5-2-7z" fill="none" stroke="currentColor" stroke-width="2" stroke-linejoin="round"/></symbol>
  <symbol id="gear" viewBox="0 0 24 24"><circle cx="12" cy="12" r="3" fill="none" stroke="currentColor" stroke-width="2"/><path d="M19.4 15a1.7 1.7 0 0 0 .3 1.8l.1.1a2 2 0 1 1-2.8 2.8l-.1-.1a1.7 1.7 0 0 0-1.8-.3 1.7 1.7 0 0 0-1 1.5V21a2 2 0 1 1-4 0v-.1a1.7 1.7 0 0 0-1.1-1.5 1.7 1.7 0 0 0-1.8.3l-.1.1a2 2 0 1 1-2.8-2.8l.1-.1a1.7 1.7 0 0 0 .3-1.8 1.7 1.7 0 0 0-1.5-1H3a2 2 0 1 1 0-4h.1a1.7 1.7 0 0 0 1.5-1.1 1.7 1.7 0 0 0-.3-1.8l-.1-.1a2 2 0 1 1 2.8-2.8l.1.1a1.7 1.7 0 0 0 1.8.3H9a1.7 1.7 0 0 0 1-1.5V3a2 2 0 1 1 4 0v.1a1.7 1.7 0 0 0 1 1.5 1.7 1.7 0 0 0 1.8-.3l.1-.1a2 2 0 1 1 2.8 2.8l-.1.1a1.7 1.7 0 0 0-.3 1.8V9a1.7 1.7 0 0 0 1.5 1H21a2 2 0 1 1 0 4h-.1a1.7 1.7 0 0 0-1.5 1z" fill="none" stroke="currentColor" stroke-width="1.6"/></symbol>
  <symbol id="x" viewBox="0 0 24 24"><path d="M6 6l12 12M18 6 6 18" fill="none" stroke="currentColor" stroke-width="2" stroke-linecap="round"/></symbol>
  <symbol id="check" viewBox="0 0 24 24"><path d="M5 12.5l4.5 4.5L19 7.5" fill="none" stroke="currentColor" stroke-width="2.4" stroke-linecap="round" stroke-linejoin="round"/></symbol>
  <symbol id="play" viewBox="0 0 24 24"><path d="M8 5.5v13l10-6.5z" fill="currentColor"/></symbol>
  <symbol id="pause" viewBox="0 0 24 24"><path d="M7 5h4v14H7zM13 5h4v14h-4z" fill="currentColor"/></symbol>
  <symbol id="trash" viewBox="0 0 24 24"><path d="M4 7h16M9 7V4h6v3m-8 0 1 13h8l1-13" fill="none" stroke="currentColor" stroke-width="2" stroke-linecap="round" stroke-linejoin="round"/></symbol>
  <symbol id="copy" viewBox="0 0 24 24"><rect x="9" y="9" width="11" height="11" rx="2" fill="none" stroke="currentColor" stroke-width="2"/><path d="M5 15V6a2 2 0 0 1 2-2h9" fill="none" stroke="currentColor" stroke-width="2" stroke-linecap="round"/></symbol>
  <symbol id="rotl" viewBox="0 0 24 24"><path d="M4 10a8 8 0 1 1 2.3 5.7M4 4v6h6" fill="none" stroke="currentColor" stroke-width="2" stroke-linecap="round" stroke-linejoin="round"/></symbol>
  <symbol id="rotr" viewBox="0 0 24 24"><path d="M20 10a8 8 0 1 0-2.3 5.7M20 4v6h-6" fill="none" stroke="currentColor" stroke-width="2" stroke-linecap="round" stroke-linejoin="round"/></symbol>
  <symbol id="fliph" viewBox="0 0 24 24"><path d="M12 3v18M4 7l5 5-5 5zM20 7l-5 5 5 5z" fill="none" stroke="currentColor" stroke-width="2" stroke-linejoin="round"/></symbol>
  <symbol id="flipv" viewBox="0 0 24 24"><path d="M3 12h18M7 4l5 5 5-5zM7 20l5-5 5 5z" fill="none" stroke="currentColor" stroke-width="2" stroke-linejoin="round"/></symbol>
  <symbol id="crop" viewBox="0 0 24 24"><path d="M6 2v16h16M2 6h16v16" fill="none" stroke="currentColor" stroke-width="2" stroke-linecap="round" stroke-linejoin="round"/></symbol>
  <symbol id="eyedrop" viewBox="0 0 24 24"><path d="m12 9 3 3-7 7H5v-3zM14 7l3-3 3 3-3 3" fill="none" stroke="currentColor" stroke-width="2" stroke-linejoin="round"/></symbol>
  <symbol id="sun" viewBox="0 0 24 24"><circle cx="12" cy="12" r="4" fill="none" stroke="currentColor" stroke-width="2"/><path d="M12 2v2m0 16v2M2 12h2m16 0h2M4.9 4.9l1.4 1.4m11.4 11.4 1.4 1.4M4.9 19.1l1.4-1.4M17.7 6.3l1.4-1.4" stroke="currentColor" stroke-width="2" stroke-linecap="round"/></symbol>
  <symbol id="moon" viewBox="0 0 24 24"><path d="M20 14.5A8 8 0 0 1 9.5 4a8 8 0 1 0 10.5 10.5z" fill="none" stroke="currentColor" stroke-width="2" stroke-linejoin="round"/></symbol>
  <symbol id="link" viewBox="0 0 24 24"><path d="M10 14a4 4 0 0 0 5.7 0l3-3a4 4 0 0 0-5.7-5.7l-1 1M14 10a4 4 0 0 0-5.7 0l-3 3a4 4 0 0 0 5.7 5.7l1-1" fill="none" stroke="currentColor" stroke-width="2" stroke-linecap="round"/></symbol>
  <symbol id="info" viewBox="0 0 24 24"><circle cx="12" cy="12" r="9" fill="none" stroke="currentColor" stroke-width="2"/><path d="M12 11v5M12 8h.01" stroke="currentColor" stroke-width="2" stroke-linecap="round"/></symbol>
  <symbol id="warn" viewBox="0 0 24 24"><path d="M12 3 2.5 20h19z" fill="none" stroke="currentColor" stroke-width="2" stroke-linejoin="round"/><path d="M12 10v4M12 17h.01" stroke="currentColor" stroke-width="2" stroke-linecap="round"/></symbol>
  <symbol id="ext" viewBox="0 0 24 24"><path d="M14 4h6v6M20 4l-9 9M19 14v5a1 1 0 0 1-1 1H5a1 1 0 0 1-1-1V6a1 1 0 0 1 1-1h5" fill="none" stroke="currentColor" stroke-width="2" stroke-linecap="round" stroke-linejoin="round"/></symbol>
  <symbol id="video" viewBox="0 0 24 24"><rect x="3" y="6" width="13" height="12" rx="2" fill="none" stroke="currentColor" stroke-width="2"/><path d="m16 10 5-3v10l-5-3" fill="none" stroke="currentColor" stroke-width="2" stroke-linejoin="round"/></symbol>
  <symbol id="image" viewBox="0 0 24 24"><rect x="3" y="4" width="18" height="16" rx="2" fill="none" stroke="currentColor" stroke-width="2"/><path d="m4 18 5-6 4 4 3-3 4 5" fill="none" stroke="currentColor" stroke-width="2" stroke-linejoin="round"/><circle cx="16" cy="9" r="1.6" fill="currentColor"/></symbol>
  <symbol id="loop" viewBox="0 0 24 24"><path d="M17 3l3 3-3 3M7 21l-3-3 3-3M20 6H9a4 4 0 0 0-4 4v1M4 18h11a4 4 0 0 0 4-4v-1" fill="none" stroke="currentColor" stroke-width="2" stroke-linecap="round" stroke-linejoin="round"/></symbol>
  <symbol id="sparkle" viewBox="0 0 24 24"><path d="M12 3l1.8 5.2L19 10l-5.2 1.8L12 17l-1.8-5.2L5 10l5.2-1.8zM19 16l.8 2.2L22 19l-2.2.8L19 22l-.8-2.2L16 19l2.2-.8z" fill="currentColor"/></symbol>
  <symbol id="folder" viewBox="0 0 24 24"><path d="M3 7a2 2 0 0 1 2-2h4l2 2h8a2 2 0 0 1 2 2v9a2 2 0 0 1-2 2H5a2 2 0 0 1-2-2z" fill="none" stroke="currentColor" stroke-width="2" stroke-linejoin="round"/></symbol>
  <symbol id="grip" viewBox="0 0 24 24"><circle cx="9" cy="6" r="1.6" fill="currentColor"/><circle cx="15" cy="6" r="1.6" fill="currentColor"/><circle cx="9" cy="12" r="1.6" fill="currentColor"/><circle cx="15" cy="12" r="1.6" fill="currentColor"/><circle cx="9" cy="18" r="1.6" fill="currentColor"/><circle cx="15" cy="18" r="1.6" fill="currentColor"/></symbol>
  <symbol id="telegram" viewBox="0 0 24 24"><path d="M21.5 4.5 3 11.2c-1 .4-1 1 .1 1.3l4.6 1.4 1.8 5.5c.2.6.4.8.9.8s.7-.2 1.1-.6l2.4-2.3 4.8 3.5c.9.5 1.5.2 1.7-.8L23.5 6c.3-1.3-.5-1.9-2-1.5z" fill="currentColor"/></symbol>
</svg>
